# xmcd
#
# Track frame offsets:
# 182
# 23507
# 46160
# 68765
# 89257
# 113197
# 136695
# 160770
# 183072
# 202510
# 224595
# 246800
# 268540
# 290975
# 312227
#
# Disc length: 4473 seconds
#
#
# Revision: 0
# Processed by: cddbd v1.5.1PL0 Copyright (c) Steve Scherf et al.
# Submitted via: FreeRIP 2.10 
#
DISCID=c811770f
DTITLE=PASION LATINA - Eddie Santiago, Frankie Ruiz, Lalo Rodríguez
DYEAR=1900
DGENRE=
TTITLE0=LALO RODRIGUEZ - VEN DEVORAME OTRA VEZ
TTITLE1=EDDIE SANTIAGO - TU EM QUEMAS
TTITLE2=FRANKIE RUIZ - TU CON EL
TTITLE3=LALO RODRIGUEZ - DESPUES DE HACER EL AMOR
TTITLE4=EDDIE SANTIAGO - ANTIDOTO Y VENENO
TTITLE5=FRANKIE RUIZ - LO DUDO
TTITLE6=LALO RODRIGUEZ - PERO LLEGASTE TU
TTITLE7=EDDIE SANTIAGO - LLUVIA
TTITLE8=FRANKIE RUIZ - QUE SE MUERAN DE ENVIDIA
TTITLE9=LALO RODRIGUEZ - SI TE MENTI
TTITLE10=EDDIE SANTIAGO - TODO EMPEZO
TTITLE11=FRANKIE RUIZ - DESNUDATE MUJER
TTITLE12=LALO RODRIGUEZ - LO QUE ME LASTIMA
TTITLE13=EDDIE SANTIAGO - MIA 
TTITLE14=FRANKIE RUIZ - POR AVERTE AMADO
EXTD=
EXTT0=
EXTT1=
EXTT2=
EXTT3=
EXTT4=
EXTT5=
EXTT6=
EXTT7=
EXTT8=
EXTT9=
EXTT10=
EXTT11=
EXTT12=
EXTT13=
EXTT14=
PLAYORDER=
